<svg width="9" height="11" viewBox="0 0 9 11" fill="none" xmlns="http://www.w3.org/2000/svg">
<path d="M4.51264 7.3141L5.56921 7.56335V7.53895L4.85503 7.04845L4.90003 6.98252L4.85474 7.04846C4.83192 7.03279 4.81977 7.00738 4.82003 6.98164V5.82448C4.82003 5.7803 4.85585 5.74448 4.90003 5.74448C4.90124 5.74448 4.90244 5.74451 4.90364 5.74456L6.88913 5.6742V5.53548L4.84731 4.41305L4.88574 4.34305L4.8472 4.41316C4.81769 4.39693 4.80246 4.3648 4.80632 4.33329C4.83498 3.67837 4.76296 3.29301 4.67217 3.06624C4.60726 2.90412 4.53672 2.8305 4.49011 2.79693C4.44351 2.8305 4.37296 2.90412 4.30805 3.06624C4.21698 3.29372 4.14477 3.68079 4.17417 4.3395L4.1744 4.33949C4.17588 4.37272 4.15687 4.40212 4.12854 4.41546L2.0911 5.53548V5.6742L4.08301 5.74479L4.0802 5.82448L4.08304 5.74453C4.12624 5.74606 4.16022 5.78159 4.1602 5.82448H4.1602V6.98252C4.1602 7.01179 4.14448 7.03738 4.12102 7.05133L3.41102 7.53896V7.56336L4.47177 7.31312L4.47175 7.31302C4.48575 7.30972 4.49976 7.31031 4.51264 7.31411L4.51264 7.3141ZM5.63087 7.74207L4.49012 7.47296L3.35363 7.74107C3.34646 7.74318 3.33887 7.74431 3.33102 7.74431C3.28684 7.74431 3.25102 7.7085 3.25102 7.66431V7.49793C3.25076 7.47219 3.26291 7.44678 3.28573 7.43111L3.33102 7.49706L3.28602 7.43112L4.0002 6.94062V5.90143L2.01471 5.83107C2.01351 5.83112 2.01231 5.83115 2.0111 5.83115C1.96692 5.83115 1.9311 5.79533 1.9311 5.75115V5.48966C1.93065 5.46098 1.94568 5.43299 1.97256 5.41822L2.0111 5.48832L1.97266 5.41832L4.01277 4.29684C3.98803 3.6411 4.06446 3.24534 4.15994 3.00686C4.26148 2.75323 4.39054 2.66487 4.45018 2.635C4.47217 2.62235 4.49978 2.62035 4.52443 2.63204L4.52435 2.6322C4.58109 2.65918 4.71539 2.7448 4.82031 3.00686C4.91578 3.24535 4.99221 3.6411 4.96747 4.29684L7.00327 5.41595C7.03038 5.42876 7.04914 5.45635 7.04914 5.48832V5.75115H7.04914C7.04916 5.79405 7.01518 5.82957 6.97197 5.8311L6.96914 5.75115L6.97195 5.83084L4.98004 5.90143V6.94062L5.69003 7.42824C5.71349 7.44219 5.72922 7.46778 5.72922 7.49706V7.66265C5.72935 7.66924 5.72867 7.67596 5.72708 7.68268C5.71694 7.72568 5.67385 7.75232 5.63085 7.74218L5.63087 7.74207L5.63087 7.74207Z" fill="black"/>
<path d="M4.47725 3.84873C4.55105 3.84873 4.61088 3.78891 4.61088 3.71511C4.61088 3.64131 4.55105 3.58148 4.47725 3.58148C4.40345 3.58148 4.34363 3.64131 4.34363 3.71511C4.34363 3.78891 4.40345 3.84873 4.47725 3.84873Z" fill="black"/>
<path d="M6.07457 4.54169H6.07459C6.16391 4.54169 6.24506 4.57818 6.30384 4.63695C6.36261 4.69573 6.3991 4.77688 6.3991 4.8662V5.13098V5.26609L6.28066 5.20098L5.79168 4.93218L5.74963 4.90907L5.75042 4.86092C5.75187 4.77271 5.78879 4.69286 5.84742 4.6352C5.90612 4.57745 5.98643 4.54169 6.07457 4.54169L6.07457 4.54169ZM6.07459 4.70169H6.07457C6.0297 4.70169 5.98896 4.71976 5.95929 4.74895C5.93978 4.76814 5.92498 4.79205 5.91684 4.81872L6.2391 4.99587V4.8662C6.2391 4.82105 6.22057 4.77993 6.19071 4.75008C6.16086 4.72022 6.11974 4.70169 6.07459 4.70169L6.07459 4.70169ZM6.3991 5.77419V5.95716C6.3991 6.04648 6.36261 6.12764 6.30384 6.18641C6.24506 6.24519 6.16391 6.28167 6.07459 6.28167H6.07457C5.98525 6.28167 5.9041 6.24519 5.84532 6.18641C5.78655 6.12764 5.75006 6.04648 5.75006 5.95716V5.79152V5.71456L5.82725 5.71183L6.31629 5.6945L6.3991 5.69156V5.77419L6.3991 5.77419ZM6.2391 5.95716V5.85681L5.91006 5.86847V5.95716C5.91006 6.00231 5.92859 6.04343 5.95845 6.07329C5.9883 6.10314 6.02942 6.12168 6.07457 6.12168H6.07459C6.11974 6.12168 6.16086 6.10314 6.19071 6.07329C6.22057 6.04343 6.2391 6.00231 6.2391 5.95716L6.2391 5.95716Z" fill="black"/>
<path d="M2.9057 4.70169H2.90569C2.86054 4.70169 2.81942 4.72022 2.78957 4.75008C2.75971 4.77993 2.74118 4.82105 2.74118 4.8662V4.99587L3.06344 4.81872C3.0553 4.79205 3.0405 4.76814 3.02099 4.74895C2.99132 4.71976 2.95058 4.70169 2.90571 4.70169L2.9057 4.70169ZM2.90569 4.54169H2.9057C2.99385 4.54169 3.07416 4.57745 3.13286 4.6352C3.19148 4.69286 3.22841 4.77271 3.22985 4.86092L3.23065 4.90907L3.1886 4.93218L2.69961 5.20098L2.58118 5.26608V5.13098V4.8662C2.58118 4.77688 2.61767 4.69573 2.67644 4.63695C2.73522 4.57818 2.81637 4.54169 2.90569 4.54169L2.90569 4.54169ZM2.74118 5.85682V5.95716C2.74118 6.00232 2.75971 6.04344 2.78957 6.07329C2.81942 6.10314 2.86054 6.12168 2.90569 6.12168H2.9057C2.95086 6.12168 2.99198 6.10314 3.02183 6.07329C3.05169 6.04344 3.07022 6.00232 3.07022 5.95716V5.86848L2.74118 5.85682L2.74118 5.85682ZM2.58118 5.95716V5.77419V5.69157L2.66399 5.6945L3.15303 5.71184L3.23022 5.71457V5.79153V5.95716C3.23022 6.04649 3.19373 6.12764 3.13496 6.18642C3.07618 6.24519 2.99503 6.28168 2.9057 6.28168H2.90569C2.81637 6.28168 2.73522 6.24519 2.67644 6.18642C2.61767 6.12764 2.58118 6.04649 2.58118 5.95716L2.58118 5.95716Z" fill="black"/>
<path d="M4.57013 0.046185L6.73519 1.29619L6.73503 1.29646L8.89963 2.54618L8.98026 2.59273V2.6843V5.1843V7.6843V7.77588L8.89963 7.82243L6.73503 9.07215L6.73519 9.07242L4.57013 10.3224L4.49013 10.3686L4.41013 10.3224L2.24507 9.07242L2.24523 9.07215L0.080626 7.82243L0 7.77588V7.6843V5.1843V2.6843V2.59273L0.080626 2.54618L2.24523 1.29646L2.24507 1.29619L4.41013 0.046185L4.49013 0L4.57013 0.046185V0.046185ZM6.57519 1.57244L4.49013 0.368625L2.40507 1.57244H2.40444L0.320002 2.77588V5.18432V7.59274L2.40444 8.7962H2.40507L4.49013 10L6.57519 8.7962H6.57581L8.66025 7.59274V5.18432V2.77588L6.57581 1.57244H6.57519Z" fill="black"/>
</svg>
