<svg width="200" height="200" viewBox="0 0 200 200" fill="none" xmlns="http://www.w3.org/2000/svg">
<path d="M137.143 46H63.0179C33.1868 46 9 70.1825 9 100.014C9 126.461 28.0207 148.429 53.1214 153.075L137.146 154.022C166.978 154.022 191.164 129.837 191.164 100.015C191.166 70.1855 166.978 46.0008 137.146 46.0008L137.143 46ZM135.326 72.0518C140.561 72.0518 144.813 76.2957 144.813 81.5382C144.813 86.7825 140.561 91.0332 135.326 91.0332C130.084 91.0332 125.844 86.7825 125.844 81.5382C125.844 76.2968 130.084 72.0518 135.326 72.0518V72.0518ZM91.6158 104.574C91.6158 106.898 89.731 108.784 87.4054 108.784H73.0179V123.17C73.0179 125.495 71.1331 127.381 68.8075 127.381H59.6879C57.3609 127.381 55.4775 125.495 55.4775 123.17V108.783H41.09C38.7658 108.783 36.8797 106.897 36.8797 104.572V95.45C36.8797 93.1258 38.7658 91.2396 41.09 91.2396H55.4775V76.8536C55.4775 74.5294 57.3623 72.6432 59.6879 72.6432H68.8075C71.1345 72.6432 73.0179 74.5294 73.0179 76.8536V91.2382H87.4054C89.7324 91.2382 91.6158 93.1244 91.6158 95.4486V104.574ZM116.85 109.503C111.611 109.503 107.364 105.255 107.364 100.015C107.364 94.7764 111.612 90.52 116.85 90.52C122.097 90.52 126.341 94.775 126.341 100.015C126.339 105.256 122.095 109.503 116.85 109.503ZM135.328 127.972C130.085 127.972 125.845 123.726 125.845 118.489C125.845 113.253 130.085 109.001 135.328 109.001C140.562 109.001 144.814 113.253 144.814 118.489C144.813 123.726 140.564 127.972 135.328 127.972ZM153.799 109.503C148.565 109.503 144.313 105.255 144.313 100.015C144.313 94.7764 148.565 90.52 153.799 90.52C159.05 90.52 163.285 94.775 163.285 100.015C163.283 105.256 159.05 109.503 153.799 109.503Z" fill="#4169E1"/>
</svg>
